<svg width="12" height="16" viewBox="0 0 12 16" fill="none" xmlns="http://www.w3.org/2000/svg">
<path d="M6 15.5H5.99916C5.76916 15.5 5.56167 15.4067 5.41083 15.2558L0.410831 10.2558C0.259998 10.105 0.166664 9.89667 0.166664 9.66667C0.166664 9.20667 0.539998 8.83333 0.999998 8.83333H11C11.46 8.83333 11.8333 9.20667 11.8333 9.66667C11.8333 9.89667 11.74 10.105 11.5892 10.2558L6.58916 15.2558C6.43916 15.4067 6.23083 15.5 6.00083 15.5H6ZM3.01166 10.5L6 13.4883L8.98833 10.5H3.01166ZM11 7.16667H0.999998C0.539998 7.16667 0.166664 6.79333 0.166664 6.33333C0.166664 6.10333 0.259998 5.895 0.410831 5.74417L5.41083 0.744167C5.56167 0.593333 5.77 0.5 6 0.5C6.23 0.5 6.43833 0.593333 6.58916 0.744167L11.5892 5.74417C11.74 5.895 11.8333 6.10333 11.8333 6.33333C11.8333 6.79333 11.46 7.16667 11 7.16667ZM3.01166 5.5H8.98833L6 2.51167L3.01166 5.5Z" fill="white"/>
</svg>
