<svg width="294" height="189" viewBox="0 0 294 189" fill="none" xmlns="http://www.w3.org/2000/svg">
<g filter="url(#filter0_d_1_875)">
<rect x="31" y="4.25012" width="241.168" height="136.75" rx="20" fill="white"/>
</g>
<path d="M87.6465 70.1017C89.4408 70.1017 90.8669 70.6053 91.9248 71.6124C92.9912 72.6196 93.5244 73.9991 93.5244 75.7511C93.5244 77.8247 92.8854 79.42 91.6074 80.5372C90.3294 81.6544 88.5013 82.213 86.123 82.213C84.0579 82.213 82.3906 81.8787 81.1211 81.2101V77.8204C81.7897 78.1759 82.5684 78.4679 83.457 78.6964C84.3457 78.9165 85.1878 79.0265 85.9834 79.0265C88.3786 79.0265 89.5762 78.0447 89.5762 76.0812C89.5762 74.2107 88.3363 73.2755 85.8564 73.2755C85.4079 73.2755 84.9128 73.3221 84.3711 73.4152C83.8294 73.4998 83.3893 73.5929 83.0508 73.6945L81.4893 72.8566L82.1875 63.3986H92.2549V66.7247H85.6279L85.2852 70.3683L85.7295 70.2794C86.2458 70.1609 86.8848 70.1017 87.6465 70.1017ZM108.619 72.6788C108.619 75.9204 108.086 78.3198 107.02 79.8771C105.962 81.4344 104.328 82.213 102.119 82.213C99.9779 82.213 98.3613 81.409 97.2695 79.8009C96.1862 78.1928 95.6445 75.8188 95.6445 72.6788C95.6445 69.4034 96.1735 66.9913 97.2314 65.4425C98.2894 63.8852 99.9186 63.1066 102.119 63.1066C104.26 63.1066 105.877 63.9191 106.969 65.5441C108.069 67.1691 108.619 69.5473 108.619 72.6788ZM99.542 72.6788C99.542 74.9555 99.7367 76.589 100.126 77.5792C100.524 78.561 101.188 79.0519 102.119 79.0519C103.033 79.0519 103.693 78.5525 104.1 77.5538C104.506 76.5551 104.709 74.9301 104.709 72.6788C104.709 70.4021 104.502 68.7687 104.087 67.7784C103.681 66.7797 103.025 66.2804 102.119 66.2804C101.197 66.2804 100.536 66.7797 100.139 67.7784C99.7409 68.7687 99.542 70.4021 99.542 72.6788ZM115.589 74.1896H110.676V71.4093H115.589V66.4581H118.369V71.4093H123.282V74.1896H118.369V79.0773H115.589V74.1896Z" fill="#181818"/>
<path d="M164.471 66.6251L161.158 57.0861H161.096C161.184 58.5027 161.229 59.8309 161.229 61.0704V66.6251H159.533V55.2032H162.166L165.338 64.2892H165.385L168.65 55.2032H171.291V66.6251H169.494V60.9767C169.494 60.409 169.507 59.6694 169.533 58.7579C169.564 57.8465 169.59 57.2944 169.611 57.1017H169.549L166.119 66.6251H164.471ZM179.51 66.6251L179.143 65.422H179.08C178.663 65.948 178.244 66.3074 177.822 66.5001C177.4 66.6876 176.859 66.7814 176.197 66.7814C175.348 66.7814 174.684 66.5522 174.205 66.0939C173.731 65.6355 173.494 64.9871 173.494 64.1486C173.494 63.2579 173.825 62.5861 174.486 62.1329C175.148 61.6798 176.156 61.4324 177.51 61.3907L179.002 61.3439V60.8829C179.002 60.3309 178.872 59.9194 178.611 59.6486C178.356 59.3725 177.958 59.2345 177.416 59.2345C176.973 59.2345 176.549 59.2996 176.143 59.4298C175.736 59.56 175.346 59.7137 174.971 59.8907L174.377 58.5782C174.846 58.3335 175.359 58.1486 175.916 58.0236C176.473 57.8934 176.999 57.8282 177.494 57.8282C178.593 57.8282 179.421 58.0678 179.979 58.547C180.541 59.0262 180.822 59.7788 180.822 60.8048V66.6251H179.51ZM176.775 65.3751C177.442 65.3751 177.976 65.1902 178.377 64.8204C178.783 64.4454 178.986 63.922 178.986 63.2501V62.5001L177.877 62.547C177.012 62.5782 176.382 62.7241 175.986 62.9845C175.596 63.2397 175.4 63.6329 175.4 64.1642C175.4 64.5496 175.515 64.8491 175.744 65.0626C175.973 65.271 176.317 65.3751 176.775 65.3751ZM187.768 57.8282C188.137 57.8282 188.442 57.8543 188.682 57.9064L188.502 59.6173C188.242 59.5548 187.971 59.5236 187.689 59.5236C186.955 59.5236 186.359 59.7631 185.9 60.2423C185.447 60.7215 185.221 61.3439 185.221 62.1095V66.6251H183.385V57.9845H184.822L185.064 59.5079H185.158C185.445 58.9923 185.817 58.5835 186.275 58.2814C186.739 57.9793 187.236 57.8282 187.768 57.8282ZM192.064 62.0626L193.104 60.7657L195.713 57.9845H197.83L194.354 61.6954L198.049 66.6251H195.893L193.119 62.8361L192.111 63.6642V66.6251H190.291V54.4689H192.111V60.3986L192.018 62.0626H192.064ZM203.221 66.7814C201.877 66.7814 200.825 66.3907 200.064 65.6095C199.309 64.823 198.932 63.7423 198.932 62.3673C198.932 60.9559 199.283 59.8465 199.986 59.0392C200.689 58.2319 201.656 57.8282 202.885 57.8282C204.025 57.8282 204.926 58.1746 205.588 58.8673C206.249 59.56 206.58 60.5131 206.58 61.7267V62.7189H200.822C200.848 63.5574 201.075 64.2032 201.502 64.6564C201.929 65.1043 202.531 65.3282 203.307 65.3282C203.817 65.3282 204.291 65.2814 204.729 65.1876C205.171 65.0887 205.645 64.9272 206.15 64.7032V66.1954C205.702 66.409 205.249 66.56 204.791 66.6486C204.333 66.7371 203.809 66.7814 203.221 66.7814ZM202.885 59.2189C202.301 59.2189 201.833 59.4038 201.479 59.7736C201.13 60.1434 200.921 60.6824 200.854 61.3907H204.775C204.765 60.6772 204.593 60.1381 204.26 59.7736C203.926 59.4038 203.468 59.2189 202.885 59.2189ZM211.885 65.297C212.333 65.297 212.781 65.2267 213.229 65.0861V66.4689C213.025 66.5574 212.762 66.6303 212.439 66.6876C212.122 66.7501 211.791 66.7814 211.447 66.7814C209.708 66.7814 208.838 65.8647 208.838 64.0314V59.3751H207.658V58.5626L208.924 57.8907L209.549 56.0626H210.682V57.9845H213.143V59.3751H210.682V64.0001C210.682 64.4428 210.791 64.771 211.01 64.9845C211.234 65.1928 211.525 65.297 211.885 65.297ZM165.994 90.6251H159.533V79.2032H165.994V80.7814H161.4V83.8907H165.705V85.4532H161.4V89.0392H165.994V90.6251ZM170.197 86.2111L167.299 81.9845H169.393L171.361 85.0079L173.346 81.9845H175.424L172.518 86.2111L175.572 90.6251H173.494L171.361 87.3907L169.236 90.6251H167.158L170.197 86.2111ZM181.471 90.7814C180.377 90.7814 179.528 90.3881 178.924 89.6017H178.814C178.887 90.3309 178.924 90.7736 178.924 90.9298V94.4689H177.088V81.9845H178.572C178.614 82.146 178.7 82.5314 178.83 83.1407H178.924C179.497 82.2657 180.356 81.8282 181.502 81.8282C182.58 81.8282 183.419 82.2189 184.018 83.0001C184.622 83.7814 184.924 84.8777 184.924 86.2892C184.924 87.7006 184.617 88.8022 184.002 89.5939C183.393 90.3855 182.549 90.7814 181.471 90.7814ZM181.025 83.3282C180.296 83.3282 179.762 83.5418 179.424 83.9689C179.09 84.396 178.924 85.0782 178.924 86.0157V86.2892C178.924 87.3413 179.09 88.1043 179.424 88.5782C179.757 89.047 180.301 89.2814 181.057 89.2814C181.692 89.2814 182.182 89.021 182.525 88.5001C182.869 87.9793 183.041 87.2371 183.041 86.2736C183.041 85.3048 182.869 84.573 182.525 84.0782C182.187 83.5782 181.687 83.3282 181.025 83.3282ZM190.83 90.7814C189.486 90.7814 188.434 90.3907 187.674 89.6095C186.919 88.823 186.541 87.7423 186.541 86.3673C186.541 84.9559 186.893 83.8465 187.596 83.0392C188.299 82.2319 189.265 81.8282 190.494 81.8282C191.635 81.8282 192.536 82.1746 193.197 82.8673C193.859 83.56 194.189 84.5131 194.189 85.7267V86.7189H188.432C188.458 87.5574 188.684 88.2032 189.111 88.6564C189.538 89.1043 190.14 89.3282 190.916 89.3282C191.426 89.3282 191.9 89.2814 192.338 89.1876C192.781 89.0887 193.255 88.9272 193.76 88.7032V90.1954C193.312 90.409 192.859 90.56 192.4 90.6486C191.942 90.7371 191.419 90.7814 190.83 90.7814ZM190.494 83.2189C189.911 83.2189 189.442 83.4038 189.088 83.7736C188.739 84.1434 188.531 84.6824 188.463 85.3907H192.385C192.374 84.6772 192.202 84.1381 191.869 83.7736C191.536 83.4038 191.077 83.2189 190.494 83.2189ZM200.658 81.8282C201.028 81.8282 201.333 81.8543 201.572 81.9064L201.393 83.6173C201.132 83.5548 200.861 83.5236 200.58 83.5236C199.846 83.5236 199.249 83.7631 198.791 84.2423C198.338 84.7215 198.111 85.3439 198.111 86.1095V90.6251H196.275V81.9845H197.713L197.955 83.5079H198.049C198.335 82.9923 198.708 82.5835 199.166 82.2814C199.63 81.9793 200.127 81.8282 200.658 81.8282ZM205.018 90.6251H203.182V81.9845H205.018V90.6251ZM203.072 79.6954C203.072 79.3673 203.161 79.1147 203.338 78.9376C203.52 78.7605 203.778 78.672 204.111 78.672C204.434 78.672 204.684 78.7605 204.861 78.9376C205.044 79.1147 205.135 79.3673 205.135 79.6954C205.135 80.0079 205.044 80.2553 204.861 80.4376C204.684 80.6147 204.434 80.7032 204.111 80.7032C203.778 80.7032 203.52 80.6147 203.338 80.4376C203.161 80.2553 203.072 80.0079 203.072 79.6954ZM211.424 90.7814C210.08 90.7814 209.028 90.3907 208.268 89.6095C207.512 88.823 207.135 87.7423 207.135 86.3673C207.135 84.9559 207.486 83.8465 208.189 83.0392C208.893 82.2319 209.859 81.8282 211.088 81.8282C212.229 81.8282 213.13 82.1746 213.791 82.8673C214.452 83.56 214.783 84.5131 214.783 85.7267V86.7189H209.025C209.051 87.5574 209.278 88.2032 209.705 88.6564C210.132 89.1043 210.734 89.3282 211.51 89.3282C212.02 89.3282 212.494 89.2814 212.932 89.1876C213.374 89.0887 213.848 88.9272 214.354 88.7032V90.1954C213.906 90.409 213.452 90.56 212.994 90.6486C212.536 90.7371 212.012 90.7814 211.424 90.7814ZM211.088 83.2189C210.505 83.2189 210.036 83.4038 209.682 83.7736C209.333 84.1434 209.124 84.6824 209.057 85.3907H212.979C212.968 84.6772 212.796 84.1381 212.463 83.7736C212.13 83.4038 211.671 83.2189 211.088 83.2189ZM224.471 90.6251H222.627V85.3126C222.627 84.646 222.492 84.1486 222.221 83.8204C221.955 83.4923 221.531 83.3282 220.947 83.3282C220.171 83.3282 219.604 83.5574 219.244 84.0157C218.885 84.4741 218.705 85.2423 218.705 86.3204V90.6251H216.869V81.9845H218.307L218.564 83.1173H218.658C218.919 82.7059 219.288 82.3881 219.768 82.1642C220.247 81.9402 220.778 81.8282 221.361 81.8282C223.434 81.8282 224.471 82.8829 224.471 84.9923V90.6251ZM230.51 90.7814C229.202 90.7814 228.208 90.4012 227.525 89.6407C226.848 88.8751 226.51 87.7788 226.51 86.3517C226.51 84.8986 226.864 83.7814 227.572 83.0001C228.286 82.2189 229.314 81.8282 230.658 81.8282C231.57 81.8282 232.39 81.9975 233.119 82.3361L232.564 83.8126C231.788 83.5105 231.148 83.3595 230.643 83.3595C229.148 83.3595 228.4 84.3517 228.4 86.3361C228.4 87.3048 228.585 88.034 228.955 88.5236C229.33 89.0079 229.877 89.2501 230.596 89.2501C231.413 89.2501 232.187 89.047 232.916 88.6407V90.2423C232.588 90.435 232.236 90.573 231.861 90.6564C231.492 90.7397 231.041 90.7814 230.51 90.7814ZM238.721 90.7814C237.377 90.7814 236.325 90.3907 235.564 89.6095C234.809 88.823 234.432 87.7423 234.432 86.3673C234.432 84.9559 234.783 83.8465 235.486 83.0392C236.189 82.2319 237.156 81.8282 238.385 81.8282C239.525 81.8282 240.426 82.1746 241.088 82.8673C241.749 83.56 242.08 84.5131 242.08 85.7267V86.7189H236.322C236.348 87.5574 236.575 88.2032 237.002 88.6564C237.429 89.1043 238.031 89.3282 238.807 89.3282C239.317 89.3282 239.791 89.2814 240.229 89.1876C240.671 89.0887 241.145 88.9272 241.65 88.7032V90.1954C241.202 90.409 240.749 90.56 240.291 90.6486C239.833 90.7371 239.309 90.7814 238.721 90.7814ZM238.385 83.2189C237.801 83.2189 237.333 83.4038 236.979 83.7736C236.63 84.1434 236.421 84.6824 236.354 85.3907H240.275C240.265 84.6772 240.093 84.1381 239.76 83.7736C239.426 83.4038 238.968 83.2189 238.385 83.2189ZM249.971 88.1642C249.971 89.0079 249.663 89.6564 249.049 90.1095C248.434 90.5574 247.554 90.7814 246.408 90.7814C245.257 90.7814 244.333 90.6069 243.635 90.2579V88.672C244.65 89.1407 245.596 89.3751 246.471 89.3751C247.601 89.3751 248.166 89.034 248.166 88.3517C248.166 88.1329 248.104 87.9506 247.979 87.8048C247.854 87.659 247.648 87.5079 247.361 87.3517C247.075 87.1954 246.676 87.0184 246.166 86.8204C245.171 86.435 244.497 86.0496 244.143 85.6642C243.794 85.2788 243.619 84.7788 243.619 84.1642C243.619 83.4246 243.916 82.8517 244.51 82.4454C245.109 82.034 245.921 81.8282 246.947 81.8282C247.963 81.8282 248.924 82.034 249.83 82.4454L249.236 83.8282C248.304 83.4428 247.52 83.2501 246.885 83.2501C245.916 83.2501 245.432 83.5262 245.432 84.0782C245.432 84.3491 245.557 84.5782 245.807 84.7657C246.062 84.9532 246.614 85.2111 247.463 85.5392C248.176 85.8152 248.695 86.0678 249.018 86.297C249.34 86.5262 249.58 86.7918 249.736 87.0939C249.893 87.3907 249.971 87.7475 249.971 88.1642Z" fill="#181818"/>
<path d="M147.735 73.5622C147.735 99.577 126.646 120.666 100.631 120.666C74.6165 120.666 53.5273 99.577 53.5273 73.5622C53.5273 47.5473 74.6165 26.4581 100.631 26.4581C126.646 26.4581 147.735 47.5473 147.735 73.5622ZM58.2378 73.5622C58.2378 96.9755 77.218 115.956 100.631 115.956C124.045 115.956 143.025 96.9755 143.025 73.5622C143.025 50.1488 124.045 31.1685 100.631 31.1685C77.218 31.1685 58.2378 50.1488 58.2378 73.5622Z" fill="#F1F1F1"/>
<path d="M100.631 28.8133C100.631 27.5126 101.687 26.452 102.986 26.517C112.782 27.007 122.203 30.5454 129.915 36.6672C138.245 43.2782 144.092 52.513 146.506 62.8692C148.92 73.2255 147.758 84.0939 143.211 93.7063C138.663 103.319 130.997 111.11 121.459 115.811C111.921 120.513 101.073 121.85 90.679 119.603C80.2851 117.356 70.9574 111.658 64.2131 103.437C57.4688 95.2153 53.7048 84.9536 53.5335 74.3211C53.3748 64.4753 56.3055 54.8479 61.8823 46.7797C62.6219 45.7097 64.1058 45.5185 65.1375 46.3107C66.1693 47.1028 66.3575 48.578 65.6238 49.6521C60.6914 56.8735 58.1017 65.4628 58.2433 74.2452C58.3975 83.8145 61.785 93.05 67.8549 100.449C73.9248 107.849 82.3198 112.977 91.6742 114.999C101.029 117.021 110.792 115.818 119.376 111.587C127.96 107.355 134.86 100.343 138.953 91.6919C143.046 83.0407 144.091 73.2592 141.918 63.9385C139.746 54.6179 134.483 46.3066 126.987 40.3567C120.107 34.8961 111.717 31.7194 102.986 31.2339C101.687 31.1617 100.631 30.1141 100.631 28.8133Z" fill="#FEBF00"/>
<circle cx="65.7113" cy="45.917" r="6.18981" fill="white" stroke="#FEBF00" stroke-width="4"/>
<defs>
<filter id="filter0_d_1_875" x="0" y="0.250122" width="293.168" height="188.75" filterUnits="userSpaceOnUse" color-interpolation-filters="sRGB">
<feFlood flood-opacity="0" result="BackgroundImageFix"/>
<feColorMatrix in="SourceAlpha" type="matrix" values="0 0 0 0 0 0 0 0 0 0 0 0 0 0 0 0 0 0 127 0" result="hardAlpha"/>
<feOffset dx="-5" dy="22"/>
<feGaussianBlur stdDeviation="13"/>
<feComposite in2="hardAlpha" operator="out"/>
<feColorMatrix type="matrix" values="0 0 0 0 0.370833 0 0 0 0 0.370833 0 0 0 0 0.370833 0 0 0 0.25 0"/>
<feBlend mode="multiply" in2="BackgroundImageFix" result="effect1_dropShadow_1_875"/>
<feBlend mode="normal" in="SourceGraphic" in2="effect1_dropShadow_1_875" result="shape"/>
</filter>
</defs>
</svg>
