<svg width="139" height="139" viewBox="0 0 139 139" fill="none" xmlns="http://www.w3.org/2000/svg">
<g filter="url(#filter0_d_1_82)">
<rect x="9.5" y="1.5" width="120" height="120" rx="60" fill="#FEBF00"/>
<rect x="17.6722" y="8.91748" width="104.41" height="104.41" rx="52.2052" stroke="#BD1F17" stroke-width="1.25" stroke-dasharray="4.02 4.02"/>
<path d="M47.5283 29.8V33.4H43.3883V55H39.4283V33.4H35.2883V29.8H47.5283ZM48.9483 35.848C48.9483 33.832 49.4643 32.272 50.4963 31.168C51.5283 30.064 53.0163 29.512 54.9603 29.512C56.9043 29.512 58.3923 30.064 59.4243 31.168C60.4563 32.272 60.9723 33.832 60.9723 35.848V48.952C60.9723 50.968 60.4563 52.528 59.4243 53.632C58.3923 54.736 56.9043 55.288 54.9603 55.288C53.0163 55.288 51.5283 54.736 50.4963 53.632C49.4643 52.528 48.9483 50.968 48.9483 48.952V35.848ZM52.9083 49.204C52.9083 50.86 53.5923 51.688 54.9603 51.688C56.3283 51.688 57.0123 50.86 57.0123 49.204V35.596C57.0123 33.94 56.3283 33.112 54.9603 33.112C53.5923 33.112 52.9083 33.94 52.9083 35.596V49.204ZM69.8098 29.8C71.7778 29.8 73.2538 30.328 74.2378 31.384C75.2218 32.44 75.7138 33.988 75.7138 36.028V48.772C75.7138 50.812 75.2218 52.36 74.2378 53.416C73.2538 54.472 71.7778 55 69.8098 55H63.5458V29.8H69.8098ZM67.5058 51.4H69.7378C70.3858 51.4 70.8778 51.208 71.2138 50.824C71.5738 50.44 71.7538 49.816 71.7538 48.952V35.848C71.7538 34.984 71.5738 34.36 71.2138 33.976C70.8778 33.592 70.3858 33.4 69.7378 33.4H67.5058V51.4ZM87.0259 55L86.3419 50.428H81.4819L80.7979 55H77.1619L81.1939 29.8H86.9899L91.0219 55H87.0259ZM85.8019 47.008L83.8939 34.264L81.9859 47.008H85.8019ZM89.8123 29.8H93.9523L96.9763 41.284L100 29.8H103.78L98.7763 46.648V55H94.8163V46.648L89.8123 29.8ZM36.1163 71.848C36.1163 69.832 36.6323 68.272 37.6643 67.168C38.6963 66.064 40.1843 65.512 42.1283 65.512C44.0723 65.512 45.5603 66.064 46.5923 67.168C47.6243 68.272 48.1403 69.832 48.1403 71.848V84.952C48.1403 86.968 47.6243 88.528 46.5923 89.632C45.5603 90.736 44.0723 91.288 42.1283 91.288C40.1843 91.288 38.6963 90.736 37.6643 89.632C36.6323 88.528 36.1163 86.968 36.1163 84.952V71.848ZM40.0763 85.204C40.0763 86.86 40.7603 87.688 42.1283 87.688C43.4963 87.688 44.1803 86.86 44.1803 85.204V71.596C44.1803 69.94 43.4963 69.112 42.1283 69.112C40.7603 69.112 40.0763 69.94 40.0763 71.596V85.204ZM59.7857 76.996V80.596H54.6737V91H50.7137V65.8H61.1897V69.4H54.6737V76.996H59.7857ZM72.1607 76.996V80.596H67.0487V91H63.0887V65.8H73.5647V69.4H67.0487V76.996H72.1607ZM84.8597 76.42V80.02H79.4237V87.4H86.2637V91H75.4637V65.8H86.2637V69.4H79.4237V76.42H84.8597ZM96.9976 91C96.8536 90.592 96.7576 90.208 96.7096 89.848C96.6616 89.488 96.6376 88.84 96.6376 87.904V83.944C96.6376 82.792 96.4336 81.976 96.0256 81.496C95.6176 80.992 94.9576 80.74 94.0456 80.74H92.6776V91H88.7176V65.8H94.6936C96.7336 65.8 98.2216 66.28 99.1576 67.24C100.094 68.176 100.562 69.628 100.562 71.596V73.576C100.562 76.168 99.6976 77.872 97.9696 78.688C98.9056 79.072 99.5776 79.72 99.9856 80.632C100.394 81.52 100.598 82.66 100.598 84.052V87.94C100.598 88.66 100.622 89.248 100.67 89.704C100.718 90.136 100.838 90.568 101.03 91H96.9976ZM92.6776 77.14H94.2256C95.0176 77.14 95.6056 76.936 95.9896 76.528C96.3976 76.12 96.6016 75.436 96.6016 74.476V71.992C96.6016 71.08 96.4336 70.42 96.0976 70.012C95.7856 69.604 95.2816 69.4 94.5856 69.4H92.6776V77.14Z" fill="#0A1425"/>
</g>
<defs>
<filter id="filter0_d_1_82" x="0.5" y="0.5" width="138" height="138" filterUnits="userSpaceOnUse" color-interpolation-filters="sRGB">
<feFlood flood-opacity="0" result="BackgroundImageFix"/>
<feColorMatrix in="SourceAlpha" type="matrix" values="0 0 0 0 0 0 0 0 0 0 0 0 0 0 0 0 0 0 127 0" result="hardAlpha"/>
<feOffset dy="8"/>
<feGaussianBlur stdDeviation="4.5"/>
<feComposite in2="hardAlpha" operator="out"/>
<feColorMatrix type="matrix" values="0 0 0 0 0 0 0 0 0 0 0 0 0 0 0 0 0 0 0.25 0"/>
<feBlend mode="normal" in2="BackgroundImageFix" result="effect1_dropShadow_1_82"/>
<feBlend mode="normal" in="SourceGraphic" in2="effect1_dropShadow_1_82" result="shape"/>
</filter>
</defs>
</svg>
